# xmcd
#
# Track frame offsets:
#	150
#	13703
#	25962
#	38962
#	51758
#	63942
#	76398
#	87973
#	100131
#	112972
#	125475
#	137079
#	148431
#	159577
#	171659
#	183948
#	196600
#	208114
#	219867
#	231695
#	244345
#	256825
#	268946
#	281246
#	294498
#
# Disc length: 4107 seconds
#
# Revision: 1
# Processed by: cddbd v1.5.1PL0 Copyright (c) Steve Scherf et al.
# Submitted via: audiograbber 1.82.01
#
DISCID=7f100919
DTITLE=Acuff Roy - Fireball Mail
DYEAR=2004
DGENRE=Country
TTITLE0=Stuck Up Blues
TTITLE1=Lying Woman Blues
TTITLE2=You Are My Love
TTITLE3=Are You Thinking Of Me Darling
TTITLE4=I Called And Nobody Answered
TTITLE5=Wreck On The Highway
TTITLE6=Fireball Mail
TTITLE7=I'll Reap My Harvest In Heaven
TTITLE8=Night Train To Memphis
TTITLE9=The Prodigal Son
TTITLE10=Low And Lonely
TTITLE11=Write Me Sweetheart
TTITLE12=Not A Word From Home
TTITLE13=I'll Forgive But I Can't Forget
TTITLE14=Blues In My Mind
TTITLE15=I Heard A Silver Trumpet
TTITLE16=Easy Rockin' Chair
TTITLE17=Wait For The Light To Shine
TTITLE18=I Think I'll Go Home And Cry
TTITLE19=We Live In Two Different Worlds
TTITLE20=Pins And Needles (In My Heart)
TTITLE21=Golden Treasure
TTITLE22=Let Me Be The First To Say I'm Sorry
TTITLE23=Waiting For The Call To Glory
TTITLE24=Gone Gone Gone (But Not Forgotten)
EXTD=
EXTT0=
EXTT1=
EXTT2=
EXTT3=
EXTT4=
EXTT5=
EXTT6=
EXTT7=
EXTT8=
EXTT9=
EXTT10=
EXTT11=
EXTT12=
EXTT13=
EXTT14=
EXTT15=
EXTT16=
EXTT17=
EXTT18=
EXTT19=
EXTT20=
EXTT21=
EXTT22=
EXTT23=
EXTT24=
PLAYORDER=
